<svg width="32" height="32" viewBox="0 0 32 32" fill="none" xmlns="http://www.w3.org/2000/svg">
  <rect width="32" height="32" rx="8" fill="#0062CC"/>
  <path d="M16 6C10.477 6 6 10.477 6 16C6 21.523 10.477 26 16 26C21.523 26 26 21.523 26 16C26 10.477 21.523 6 16 6ZM13 11C13.552 11 14 11.448 14 12C14 12.552 13.552 13 13 13C12.448 13 12 12.552 12 12C12 11.448 12.448 11 13 11ZM19 11C19.552 11 20 11.448 20 12C20 12.552 19.552 13 19 13C18.448 13 18 12.552 18 12C18 11.448 18.448 11 19 11ZM16 22C12.477 22 10 19.523 10 16H22C22 19.523 19.523 22 16 22Z" fill="white"/>
</svg>
